<?xml version="1.0" encoding="UTF-8" standalone="no"?>
<!-- Generator: Adobe Illustrator 15.1.0, SVG Export Plug-In . SVG Version: 6.00 Build 0)  -->
<svg xmlns:dc="http://purl.org/dc/elements/1.1/" xmlns:cc="http://creativecommons.org/ns#" xmlns:rdf="http://www.w3.org/1999/02/22-rdf-syntax-ns#" xmlns:svg="http://www.w3.org/2000/svg" xmlns="http://www.w3.org/2000/svg" xmlns:sodipodi="http://sodipodi.sourceforge.net/DTD/sodipodi-0.dtd" xmlns:inkscape="http://www.inkscape.org/namespaces/inkscape" version="1.1" id="Layer_1" x="0px" y="0px" width="512" height="512" viewBox="0 0 512 512" enable-background="new 0 0 325 450" xml:space="preserve" inkscape:version="0.91 r13725" sodipodi:docname="js5.svg"><metadata id="metadata33"><rdf:RDF><cc:Work rdf:about=""><dc:format>image/svg+xml</dc:format><dc:type rdf:resource="http://purl.org/dc/dcmitype/StillImage"/><dc:title/></cc:Work></rdf:RDF></metadata><defs id="defs31"/><sodipodi:namedview pagecolor="#ffffff" bordercolor="#666666" borderopacity="1" objecttolerance="10" gridtolerance="10" guidetolerance="10" inkscape:pageopacity="0" inkscape:pageshadow="2" inkscape:window-width="1366" inkscape:window-height="705" id="namedview29" showgrid="false" inkscape:zoom="0.52444444" inkscape:cx="162.5" inkscape:cy="225" inkscape:window-x="-8" inkscape:window-y="-8" inkscape:window-maximized="1" inkscape:current-layer="Layer_1"/><g id="g3" transform="matrix(1.2191928,0,0,1.2191928,57.88117,-18.31838)"><polygon points="162.318,434.975 40.845,401.254 13.775,97.632 311.225,97.632 284.127,401.205 " id="polygon5" style="fill:#efc725"/><polygon points="260.678,381.5 283.836,122.083 162.25,122.083 162.25,408.787 " id="polygon7" style="fill:#fbde34"/><polygon points="162.193,331.426 162.031,331.473 120.559,320.272 117.906,290.575 97.756,290.575 80.527,290.575 85.744,349.043 162.021,370.219 162.193,370.17 " id="polygon9" style="fill:#ebebeb"/><polygon points="80.651,271.937 90.686,271.937 167.209,271.937 167.209,234.7 121.355,234.7 126.732,176.258 167.312,175.177 167.209,136.454 93.065,136.454 90.311,163.903 81.559,261.938 " id="polygon11" style="fill:#ebebeb"/><polygon points="166.957,175.229 167.12,175.183 207.791,177.632 211.242,216.079 231.393,216.079 248.623,216.079 242.109,144.133 167.129,136.437 166.957,136.485 " id="polygon13" style="fill:#ffffff"/><polyline points="244.784,175.343 241.593,136.454 162.99,136.454 162.99,160.606 162.99,175.246 162.99,175.343    244.784,175.343  " id="polyline15" style="fill:#ffffff"/><polygon points="248.623,234.718 238.588,234.718 162.064,234.718 162.064,271.954 207.918,271.954 203.596,320.247 162.064,331.459 162.064,370.201 238.404,349.043 238.963,342.752 247.715,244.717 " id="polygon17" style="fill:#ffffff"/><path d="M 240,173.693" id="path19" inkscape:connector-curvature="0" style="fill:#ffffff"/><g id="g21"><polygon points="214.945,15.025 214.945,30.571 214.945,30.571 190.256,30.571 215.932,58.431 215.932,71.691 163.049,71.691 163.049,56.165 188.719,56.165 163.049,28.306 163.049,15.025 " id="polygon23" style="fill:#151515"/><path d="m 153.631,15.05 0,56.617 -45.543,0 0,-18.714 26.613,0 0,-37.903 18.928,0 0.002,0 z" id="path25" inkscape:connector-curvature="0" style="fill:#020202"/></g><path d="M 239.51,173.693" id="path27" inkscape:connector-curvature="0" style="fill:#ffffff"/></g></svg>